<?xml version="1.0" standalone="no"?>
<!DOCTYPE svg PUBLIC "-//W3C//DTD SVG 20010904//EN"
 "http://www.w3.org/TR/2001/REC-SVG-20010904/DTD/svg10.dtd">
<svg version="1.0" xmlns="http://www.w3.org/2000/svg"
 width="900.000000pt" height="720.000000pt" viewBox="0 0 900.000000 720.000000"
 preserveAspectRatio="xMidYMid meet">

<g transform="translate(0.000000,720.000000) scale(0.100000,-0.100000)"
fill="#000000" stroke="none">
<path d="M4940 6836 l0 -185 -57 -6 c-325 -38 -576 -144 -762 -320 -126 -120
-216 -270 -263 -440 -19 -69 -22 -105 -22 -260 1 -210 16 -287 85 -414 118
-220 297 -350 639 -465 74 -25 180 -56 235 -71 55 -14 110 -30 123 -35 l22
-10 0 -495 c0 -564 10 -511 -94 -475 -101 34 -179 82 -252 155 -105 104 -152
207 -169 373 l-7 72 -334 0 c-184 0 -334 -3 -334 -7 0 -5 7 -54 15 -110 89
-624 446 -975 1073 -1053 l102 -13 0 -204 0 -203 140 0 140 0 0 204 0 204 63
7 c275 29 477 95 667 221 260 171 419 410 460 691 14 92 0 322 -25 431 -34
143 -121 289 -247 408 -187 178 -394 277 -785 375 l-133 34 0 424 0 424 54 -6
c74 -7 141 -44 207 -114 77 -80 118 -168 135 -285 6 -45 8 -48 38 -49 17 0
168 -2 335 -3 l304 -2 -6 76 c-16 228 -144 489 -313 639 -176 155 -383 241
-716 296 l-38 6 0 184 0 185 -140 0 -140 0 0 -184z m0 -1136 l0 -390 -27 6
c-217 53 -350 140 -388 254 -26 77 -24 198 5 272 52 139 207 244 363 247 l47
1 0 -390z m391 -1181 c123 -40 244 -99 294 -142 119 -102 147 -312 63 -469
-38 -72 -129 -158 -210 -199 -61 -31 -191 -69 -235 -69 l-23 0 0 455 c0 250 4
455 8 455 5 0 51 -14 103 -31z"/>
<path d="M1885 3208 c25 -404 134 -776 327 -1126 l51 -92 196 2 196 3 3 663 2
662 -391 0 -392 0 8 -112z"/>
<path d="M3050 3164 c-30 -2 -74 -6 -97 -10 l-43 -5 0 -468 0 -468 39 -12 c63
-18 330 -154 466 -236 68 -41 218 -137 333 -214 144 -95 225 -143 258 -151 33
-8 226 -15 599 -20 608 -9 965 -30 1312 -76 141 -19 181 -14 221 26 36 35 43
67 26 115 -15 46 -34 67 -101 111 -152 101 -447 158 -887 170 -178 5 -214 9
-316 35 -63 16 -145 41 -182 55 -165 63 -391 260 -338 295 23 15 86 2 257 -52
299 -95 415 -115 487 -85 44 18 76 61 76 102 0 109 -282 263 -714 390 -151 45
-245 92 -431 218 -257 174 -375 238 -483 262 -66 14 -372 26 -482 18z"/>
</g>
</svg>
